<svg width="18" height="13" viewBox="0 0 18 13" fill="none" xmlns="http://www.w3.org/2000/svg">
<path d="M17.3484 2.21228L6.74839 12.8122C6.65451 12.9069 6.52671 12.9601 6.39339 12.9601C6.26007 12.9601 6.13227 12.9069 6.03839 12.8122L0.648388 7.42224C0.553728 7.32844 0.500488 7.20064 0.500488 7.06724C0.500488 6.93394 0.553728 6.80614 0.648388 6.71224L1.34839 6.01224C1.44227 5.91764 1.57007 5.86434 1.70339 5.86434C1.83671 5.86434 1.96451 5.91764 2.05839 6.01224L6.38839 10.3422L15.9384 0.79228C16.1362 0.60049 16.4506 0.60049 16.6484 0.79228L17.3484 1.50228C17.4431 1.59616 17.4963 1.72396 17.4963 1.85728C17.4963 1.9906 17.4431 2.11839 17.3484 2.21228Z" fill="#12B76A"/>
</svg>
