<svg width="20" height="21" viewBox="0 0 20 21" fill="none" xmlns="http://www.w3.org/2000/svg">
<g id="help 1">
<g id="Group">
<g id="Group_2">
<path id="Vector" fill-rule="evenodd" clip-rule="evenodd" d="M7.5 16.6125C4.58812 15.5819 2.5 12.8032 2.5 9.54004C2.5 5.40066 5.86062 2.04004 10 2.04004C14.1394 2.04004 17.5 5.40066 17.5 9.54004C17.5 11.8738 16.3625 14.2419 14.2244 15.6832C12.5975 16.7794 10.5906 18.0769 9.425 18.825C9.04063 19.0719 8.55188 19.0894 8.15063 18.87C7.74938 18.6507 7.5 18.23 7.5 17.7732V16.6125ZM10.4919 11.9125V11.5713C10.4919 10.5613 11.0869 10.2019 11.5725 9.81691C12.1044 9.39503 12.5506 8.94817 12.6713 8.21504C12.8056 7.39754 12.6275 6.76629 12.3081 6.29379C11.83 5.58504 11.0031 5.22629 10.2744 5.17441C7.695 4.99004 7.08875 7.50254 7.08875 7.50254C7.00812 7.83817 7.21438 8.17567 7.55 8.25692C7.885 8.33754 8.22312 8.13129 8.30375 7.79566C8.30375 7.79566 8.66187 6.31191 10.185 6.42129C10.5706 6.44879 11.0194 6.61817 11.2725 6.99317C11.4406 7.24254 11.5087 7.58066 11.4375 8.01191C11.3937 8.28066 11.2375 8.45567 11.06 8.61754C10.8806 8.78004 10.6775 8.92754 10.4788 9.08942C9.83688 9.61317 9.24188 10.2532 9.24188 11.5713V11.9107C9.24188 11.9107 9.2425 12.035 9.28437 12.1363C9.38375 12.3788 9.59625 12.535 9.88188 12.535C10.2088 12.535 10.4719 12.2482 10.4881 11.9813C10.49 11.9557 10.4919 11.9125 10.4919 11.9125ZM9.87125 13.1607C9.48375 13.1607 9.16875 13.475 9.16875 13.8625C9.16875 14.25 9.48375 14.565 9.87125 14.565C10.2588 14.565 10.5737 14.25 10.5737 13.8625C10.5737 13.475 10.2588 13.1607 9.87125 13.1607Z" fill="white"/>
</g>
</g>
</g>
</svg>
