<svg width="45" height="45" viewBox="0 0 45 45" fill="none" xmlns="http://www.w3.org/2000/svg">
<g id="svgexport-10 (29) 1">
<g id="Group">
<g id="Layer 2">
<path id="Vector" d="M29.1135 42.3099H15.0115C14.6468 42.3099 14.2971 42.165 14.0392 41.9072C13.7813 41.6493 13.6365 41.2996 13.6365 40.9349V35.1526C13.6365 32.9178 14.5242 30.7747 16.1044 29.1945C17.6846 27.6143 19.8278 26.7266 22.0625 26.7266C24.2972 26.7266 26.4404 27.6143 28.0206 29.1945C29.6007 30.7747 30.4885 32.9178 30.4885 35.1526V40.9349C30.4885 41.2996 30.3436 41.6493 30.0857 41.9072C29.8279 42.165 29.4781 42.3099 29.1135 42.3099ZM16.3865 39.5599H27.7385V35.1526C27.7385 33.6472 27.1405 32.2035 26.076 31.139C25.0116 30.0746 23.5678 29.4766 22.0625 29.4766C20.5571 29.4766 19.1134 30.0746 18.0489 31.139C16.9845 32.2035 16.3865 33.6472 16.3865 35.1526V39.5599Z" fill="#4ABB82"/>
<g id="Group_2">
<path id="Vector_2" d="M34.8958 42.31H9.22917C7.89248 42.3085 6.61096 41.7769 5.66578 40.8317C4.7206 39.8865 4.18896 38.605 4.1875 37.2683V22.125C4.1875 21.7603 4.33237 21.4106 4.59023 21.1527C4.84809 20.8949 5.19783 20.75 5.5625 20.75C5.92717 20.75 6.27691 20.8949 6.53477 21.1527C6.79263 21.4106 6.9375 21.7603 6.9375 22.125V37.2683C6.93799 37.876 7.17958 38.4586 7.60925 38.8883C8.03892 39.3179 8.62153 39.5595 9.22917 39.56H34.8958C35.5035 39.5595 36.0861 39.3179 36.5158 38.8883C36.9454 38.4586 37.187 37.876 37.1875 37.2683V22.125C37.1875 21.7603 37.3324 21.4106 37.5902 21.1527C37.8481 20.8949 38.1978 20.75 38.5625 20.75C38.9272 20.75 39.2769 20.8949 39.5348 21.1527C39.7926 21.4106 39.9375 21.7603 39.9375 22.125V37.2683C39.936 38.605 39.4044 39.8865 38.4592 40.8317C37.514 41.7769 36.2325 42.3085 34.8958 42.31Z" fill="#1D1D35"/>
<path id="Vector_3" d="M29.3958 23.9767C28.7088 23.9772 28.029 23.8369 27.3984 23.5645C26.7677 23.292 26.1996 22.8932 25.7291 22.3927C25.2584 22.893 24.6903 23.2917 24.0597 23.5642C23.4291 23.8368 22.7494 23.9774 22.0625 23.9774C21.3755 23.9774 20.6958 23.8368 20.0652 23.5642C19.4346 23.2917 18.8665 22.893 18.3958 22.3927C17.9254 22.8927 17.3576 23.2912 16.7275 23.5637C16.0974 23.8362 15.4183 23.9769 14.7317 23.9773C14.0452 23.9776 13.3659 23.8375 12.7355 23.5657C12.1052 23.2938 11.537 22.8959 11.0661 22.3963C10.9433 22.5265 10.8095 22.653 10.672 22.7722C10.1118 23.2474 9.45521 23.5955 8.74748 23.7924C8.03975 23.9893 7.29773 24.0302 6.57262 23.9125C5.37477 23.6873 4.29485 23.0465 3.52314 22.103C2.75143 21.1596 2.33744 19.9741 2.35412 18.7553V15.2683C2.35471 15.055 2.40492 14.8448 2.50079 14.6542L6.98512 5.68185C7.40096 4.84186 8.04399 4.1353 8.8412 3.6424C9.63841 3.14949 10.5578 2.88998 11.4951 2.89335H32.6298C33.5669 2.88981 34.4862 3.14905 35.2834 3.64162C36.0806 4.13419 36.7237 4.84037 37.1398 5.68001L41.626 14.6542C41.7212 14.8449 41.7708 15.0552 41.7708 15.2683V18.7553C41.7878 19.9737 41.3742 21.1589 40.6027 22.1021C39.8313 23.0453 38.7517 23.6858 37.5541 23.9107C36.8289 24.0299 36.0863 23.9899 35.3781 23.7933C34.6699 23.5966 34.013 23.2482 33.453 22.7722C33.3156 22.6534 33.184 22.5279 33.0588 22.3963C32.5882 22.8955 32.0205 23.2932 31.3906 23.565C30.7607 23.8367 30.0818 23.9768 29.3958 23.9767ZM5.10412 15.5928V18.7553C5.08373 19.3204 5.26287 19.8746 5.61016 20.3207C5.95744 20.7669 6.4507 21.0766 7.00346 21.1955C7.33546 21.2515 7.67566 21.2346 8.00047 21.1459C8.32528 21.0573 8.62692 20.8991 8.88446 20.6822C9.13688 20.4665 9.33942 20.1986 9.47807 19.8969C9.61672 19.5952 9.68816 19.267 9.68746 18.935C9.68746 18.5703 9.83232 18.2206 10.0902 17.9627C10.348 17.7049 10.6978 17.56 11.0625 17.56C11.4271 17.56 11.7769 17.7049 12.0347 17.9627C12.2926 18.2206 12.4375 18.5703 12.4375 18.935C12.4375 19.5428 12.6789 20.1257 13.1087 20.5555C13.5384 20.9852 14.1213 21.2267 14.7291 21.2267C15.3369 21.2267 15.9198 20.9852 16.3496 20.5555C16.7793 20.1257 17.0208 19.5428 17.0208 18.935C17.0208 18.5703 17.1657 18.2206 17.4235 17.9627C17.6814 17.7049 18.0311 17.56 18.3958 17.56C18.7605 17.56 19.1102 17.7049 19.3681 17.9627C19.6259 18.2206 19.7708 18.5703 19.7708 18.935C19.7708 19.5428 20.0122 20.1257 20.442 20.5555C20.8718 20.9852 21.4547 21.2267 22.0625 21.2267C22.6702 21.2267 23.2531 20.9852 23.6829 20.5555C24.1127 20.1257 24.3541 19.5428 24.3541 18.935C24.3541 18.5703 24.499 18.2206 24.7569 17.9627C25.0147 17.7049 25.3645 17.56 25.7291 17.56C26.0938 17.56 26.4435 17.7049 26.7014 17.9627C26.9593 18.2206 27.1041 18.5703 27.1041 18.935C27.1041 19.5428 27.3456 20.1257 27.7753 20.5555C28.2051 20.9852 28.788 21.2267 29.3958 21.2267C30.0036 21.2267 30.5865 20.9852 31.0162 20.5555C31.446 20.1257 31.6875 19.5428 31.6875 18.935C31.6875 18.5703 31.8323 18.2206 32.0902 17.9627C32.348 17.7049 32.6978 17.56 33.0625 17.56C33.4271 17.56 33.7769 17.7049 34.0347 17.9627C34.2926 18.2206 34.4375 18.5703 34.4375 18.935C34.4366 19.2696 34.5092 19.6003 34.6501 19.9039C34.791 20.2074 34.9968 20.4763 35.2528 20.6916C35.5089 20.907 35.8092 21.0636 36.1323 21.1503C36.4555 21.2371 36.7938 21.2519 37.1233 21.1937C37.6756 21.0748 38.1684 20.7653 38.5153 20.3195C38.8622 19.8736 39.0412 19.3199 39.0208 18.7553V15.5928L34.6795 6.90835C34.4901 6.52709 34.1977 6.20651 33.8354 5.98293C33.4731 5.75934 33.0555 5.64171 32.6298 5.64335H11.4951C11.0694 5.64171 10.6518 5.75934 10.2895 5.98293C9.92724 6.20651 9.63485 6.52709 9.44546 6.90835L5.10412 15.5928Z" fill="#1D1D35"/>
</g>
</g>
</g>
</g>
</svg>
