<svg width="210" height="90" viewBox="0 0 210 90" fill="none" xmlns="http://www.w3.org/2000/svg">
<mask id="mask0_1_2478" style="mask-type:luminance" maskUnits="userSpaceOnUse" x="166" y="0" width="94" height="90">
<path d="M167.717 0.785156H167.217V1.28516V88.2426V88.7426H167.717H258.477H258.977V88.2426V1.28516V0.785156H258.477L167.717 0.785156Z" fill="white" stroke="white"/>
</mask>
<g mask="url(#mask0_1_2478)">
<path d="M203.459 72.6623L203.461 72.6648C206.565 77.4103 208.653 81.8703 209.74 86.0452C210.142 87.5871 211.544 88.7426 213.212 88.7426C214.883 88.7426 216.287 87.583 216.684 86.0359L216.2 85.9117L216.684 86.0359C217.77 81.8001 219.86 77.3061 222.969 72.5516C225.463 68.7443 228.662 65.1167 232.572 61.67L232.576 61.6665C236.488 58.1435 240.712 55.1086 245.248 52.5605C249 50.4893 252.639 48.9927 256.167 48.0662L256.04 47.5826L256.167 48.0662C257.758 47.6481 258.977 46.284 258.977 44.628C258.977 42.9975 257.794 41.6404 256.221 41.2216C250.644 39.7366 245.148 37.1591 239.732 33.4813C235.587 30.633 231.833 27.4488 228.471 23.9287C225.189 20.3343 222.497 16.5948 220.392 12.7106C218.718 9.56203 217.491 6.4916 216.707 3.49908C216.299 1.94083 214.878 0.785156 213.197 0.785156C211.535 0.785156 210.123 1.91568 209.704 3.45483C208.345 8.45072 205.839 13.5182 202.173 18.6574C198.034 24.4182 192.878 29.3585 186.703 33.4781C181.327 37.0432 175.745 39.6156 169.956 41.1994L170.088 41.6816L169.956 41.1994C168.384 41.6293 167.217 42.9934 167.217 44.6205C167.217 46.2811 168.431 47.6569 170.032 48.0783C175.923 49.6303 181.829 52.5435 187.75 56.8312L187.752 56.8328C194.567 61.711 199.797 66.9889 203.459 72.6623Z" stroke="white"/>
</g>
<rect x="7.89673" y="15.2852" width="183.009" height="61.2282" rx="30.6141" fill="#4ABB82"/>
<rect x="0.54126" y="11.2832" width="197.719" height="61.2282" rx="30.6141" fill="#1D1D35"/>
<mask id="mask1_1_2478" style="mask-type:luminance" maskUnits="userSpaceOnUse" x="179" y="5" width="84" height="80">
<path d="M262.534 5.16016L179.861 5.16016V84.3691H262.534V5.16016Z" fill="white"/>
</mask>
<g mask="url(#mask1_1_2478)">
<path d="M221.302 84.3691C219.999 84.3691 218.896 83.4645 218.581 82.2526C217.574 78.39 215.648 74.2822 212.801 69.9301C209.428 64.7043 204.62 59.8571 198.376 55.3877C192.946 51.4554 187.516 48.7738 182.085 47.3433C180.799 47.0046 179.861 45.912 179.861 44.634C179.861 43.3811 180.763 42.301 182.021 41.957C187.345 40.5006 192.474 38.1361 197.407 34.8635C203.077 31.0818 207.813 26.5438 211.617 21.2495C214.982 16.5332 217.291 11.8687 218.546 7.25605C218.875 6.04767 219.985 5.16016 221.289 5.16016C222.607 5.16016 223.725 6.06733 224.045 7.29218C224.77 10.0574 225.901 12.8878 227.441 15.7832C229.379 19.3586 231.854 22.7965 234.869 26.0969C237.954 29.3285 241.399 32.2507 245.203 34.8635C250.173 38.239 255.226 40.6105 260.361 41.978C261.621 42.3135 262.534 43.3881 262.534 44.6408C262.534 45.9124 261.593 46.9959 260.314 47.3322C257.058 48.1872 253.708 49.5663 250.262 51.4685C246.1 53.8063 242.224 56.5909 238.636 59.8226C235.048 62.9854 232.106 66.3201 229.809 69.8267C226.957 74.188 225.028 78.3274 224.024 82.2459C223.712 83.4613 222.608 84.3691 221.302 84.3691Z" fill="#F7C309"/>
</g>
</svg>
