<svg width="21" height="21" viewBox="0 0 21 21" fill="none" xmlns="http://www.w3.org/2000/svg">
<rect width="21" height="21" fill="#F5F5F5"/>
<g id="home" clip-path="url(#clip0_0_1)">
<rect width="1440" height="9310" transform="translate(-739 -4764)" fill="white"/>
<g id="pricing">
<rect width="1440" height="1169" transform="translate(-739 -105.352)" fill="white"/>
<g id="text">
<g id="Frame 1766">
<rect width="110" height="32" rx="16" transform="matrix(-1 0 0 1 36.5 -5.35156)" fill="#4ABB82"/>
<g id="tag (1) 1" clip-path="url(#clip1_0_1)">
<g id="Group">
<g id="Group_2">
<path id="Vector" d="M4.89984 1.71283H11.0405C11.4292 1.71283 11.8024 1.86756 12.0774 2.14255L20.0705 10.1341C20.6432 10.7068 20.6432 11.6352 20.0705 12.2086L13.9298 18.3493C13.3571 18.9221 12.4287 18.9221 11.856 18.3493L3.86294 10.3578C3.58795 10.082 3.43322 9.7088 3.43322 9.31941V3.17944C3.43322 2.36914 4.08953 1.71283 4.89984 1.71283ZM7.46641 6.84597C8.07358 6.84597 8.56636 6.35319 8.56636 5.74601C8.56636 5.13883 8.07358 4.64605 7.46641 4.64605C6.85923 4.64605 6.36645 5.13883 6.36645 5.74601C6.36645 6.35319 6.85923 6.84597 7.46641 6.84597Z" fill="white"/>
</g>
</g>
<g id="Group_3">
<g id="Group_4">
<path id="Vector_2" d="M1.96663 3.17944L1.96736 10.0058C1.96736 10.3438 2.10155 10.6687 2.34134 10.9078L10.4634 19.0299L10.3388 19.1545C9.76607 19.7272 8.8377 19.7272 8.26499 19.1545L0.930464 11.8215C0.65474 11.5465 0.500013 11.1732 0.500013 10.7846V4.64606C0.500013 3.83575 1.15632 3.17944 1.96663 3.17944Z" fill="white"/>
</g>
</g>
</g>
</g>
</g>
</g>
</g>
<defs>
<clipPath id="clip0_0_1">
<rect width="1440" height="9310" fill="white" transform="translate(-739 -4764)"/>
</clipPath>
<clipPath id="clip1_0_1">
<rect width="20" height="20" fill="white" transform="matrix(-1 0 0 1 20.5 0.648438)"/>
</clipPath>
</defs>
</svg>
