<svg width="35" height="36" viewBox="0 0 35 36" fill="none" xmlns="http://www.w3.org/2000/svg">
<path d="M9.65419 29.8151H25.3459C26.3483 29.8174 27.3212 29.4754 28.1016 28.8462C28.8821 28.2171 29.4228 27.339 29.6334 26.3588L32.1854 14.4443C32.3608 13.6944 32.2943 12.9083 31.9953 12.1986C31.6964 11.4889 31.1804 10.8921 30.5213 10.4938C29.8623 10.0954 29.094 9.91599 28.3267 9.9812C27.5594 10.0464 26.8324 10.3529 26.25 10.8568L23.6396 13.0734L20.5334 8.40677C20.2027 7.90434 19.7524 7.4919 19.223 7.20652C18.6935 6.92113 18.1015 6.77173 17.5 6.77173C16.8986 6.77173 16.3065 6.92113 15.7771 7.20652C15.2476 7.4919 14.7973 7.90434 14.4667 8.40677L11.3604 13.0734L8.75002 10.8568C8.16713 10.3671 7.44557 10.0721 6.68656 10.0133C5.92755 9.9545 5.16917 10.1348 4.51779 10.5288C3.86642 10.9228 3.35474 11.5109 3.05452 12.2105C2.75429 12.9101 2.6806 13.6861 2.84377 14.4297L5.39585 26.3443C5.60241 27.3222 6.13758 28.1999 6.91233 28.8314C7.68708 29.4629 8.6547 29.81 9.65419 29.8151ZM28.6125 12.9422C28.7479 12.941 28.8804 12.9818 28.9917 13.0588C29.1144 13.1289 29.2126 13.2351 29.2726 13.363C29.3326 13.4909 29.3517 13.6343 29.3271 13.7734L26.775 25.688C26.7039 26.0197 26.5193 26.3162 26.2531 26.5265C25.987 26.7367 25.6558 26.8476 25.3167 26.8401H9.65419C9.31506 26.8476 8.9839 26.7367 8.71773 26.5265C8.45155 26.3162 8.26701 26.0197 8.19585 25.688L5.67294 13.7734C5.6403 13.6247 5.65504 13.4695 5.71508 13.3296C5.77513 13.1897 5.87747 13.0721 6.00774 12.9933C6.13802 12.9144 6.28969 12.8784 6.44149 12.8902C6.5933 12.9019 6.73761 12.9609 6.85419 13.0588L9.47919 15.2609C9.79435 15.5227 10.1611 15.7151 10.5556 15.8257C10.9501 15.9362 11.3635 15.9624 11.7688 15.9026C12.1745 15.8444 12.5635 15.7014 12.9103 15.4827C13.257 15.2641 13.5538 14.9749 13.7813 14.6338L16.8875 9.96718C16.9536 9.86485 17.0443 9.7807 17.1513 9.72244C17.2583 9.66418 17.3782 9.63365 17.5 9.63365C17.6218 9.63365 17.7417 9.66418 17.8487 9.72244C17.9557 9.7807 18.0464 9.86485 18.1125 9.96718L21.2188 14.6922C21.4462 15.0332 21.743 15.3225 22.0898 15.5411C22.4365 15.7597 22.8255 15.9028 23.2313 15.9609C23.6366 16.0208 24.0499 15.9946 24.4444 15.884C24.8389 15.7735 25.2057 15.581 25.5209 15.3193L28.1459 13.1172C28.2754 13.0047 28.441 12.9426 28.6125 12.9422Z" fill="#1D1D35"/>
<path d="M17.5 23.9818C15.8892 23.9818 14.5834 22.6759 14.5834 21.0651C14.5834 19.4543 15.8892 18.1484 17.5 18.1484C19.1109 18.1484 20.4167 19.4543 20.4167 21.0651C20.4167 22.6759 19.1109 23.9818 17.5 23.9818Z" fill="#4ABB82"/>
</svg>
