<svg width="35" height="36" viewBox="0 0 35 36" fill="none" xmlns="http://www.w3.org/2000/svg">
<g clip-path="url(#clip0_1_2358)">
<path d="M3.29831 7.91096L11.7065 2.40589C13.4788 1.27107 15.541 0.672096 17.6455 0.680944C19.7499 0.689791 21.807 1.30608 23.5697 2.45577L31.7529 7.91168C32.7529 8.57629 33.5728 9.47814 34.1394 10.5368C34.706 11.5954 35.0016 12.7778 35 13.9785V22.3184C35.0016 23.5191 34.7059 24.7015 34.1393 25.7601C33.5727 26.8187 32.7528 27.7205 31.7529 28.3851L23.5697 33.841C21.8147 35.0108 19.7547 35.6392 17.6456 35.6481C15.5365 35.6569 13.4712 35.0459 11.7065 33.8909L3.29831 28.3873C2.28385 27.7256 1.45078 26.8209 0.874771 25.7554C0.298763 24.69 -0.00193405 23.4975 -3.8147e-06 22.2863V14.0106C-0.00189972 12.7996 0.29882 11.6073 0.87484 10.5421C1.45086 9.47683 2.28391 8.5724 3.29831 7.91096ZM2.91666 22.2863C2.91575 23.013 3.09633 23.7285 3.44202 24.3677C3.78771 25.0069 4.28756 25.5497 4.89621 25.9467L13.3044 31.4515C14.5966 32.2781 16.0999 32.7142 17.6338 32.7076C19.1677 32.7011 20.6672 32.2521 21.9523 31.4145L30.1351 25.9586C30.7351 25.5598 31.227 25.0187 31.567 24.3835C31.9069 23.7483 32.0843 23.0388 32.0833 22.3184V13.9785C32.0843 13.2581 31.9069 12.5486 31.567 11.9134C31.227 11.2783 30.7351 10.7371 30.1351 10.3384L21.9518 4.88243C20.6725 4.02974 19.1709 3.57165 17.6335 3.56506C16.096 3.55848 14.5905 4.00368 13.3039 4.84539L4.89577 10.3505C4.28711 10.7474 3.78726 11.2901 3.44163 11.9293C3.09601 12.5685 2.91555 13.2839 2.91666 14.0106V22.2863Z" fill="white"/>
<path d="M6.65928 12.5238L13.3158 16.8731C14.6076 17.6967 16.1091 18.131 17.641 18.124C19.173 18.1171 20.6705 17.6692 21.9547 16.8339L28.3276 12.5756C28.6492 12.364 29.0414 12.2882 29.4186 12.3647C29.7959 12.4411 30.1276 12.6635 30.3415 12.9835C30.5554 13.3035 30.6341 13.6951 30.5605 14.0729C30.4868 14.4507 30.2668 14.7841 29.9484 15.0003L23.5739 19.2607C22.1884 20.1794 20.6082 20.7631 18.9583 20.9658V29.8151C18.9583 30.2019 18.8046 30.5728 18.5311 30.8463C18.2577 31.1198 17.8867 31.2734 17.4999 31.2734C17.1132 31.2734 16.7422 31.1198 16.4687 30.8463C16.1953 30.5728 16.0416 30.2019 16.0416 29.8151V20.9527C14.496 20.7309 13.0186 20.1701 11.715 19.3106L5.0643 14.9648C4.89911 14.8623 4.75607 14.7278 4.64359 14.5693C4.53112 14.4107 4.45149 14.2312 4.40937 14.0415C4.36725 13.8517 4.3635 13.6554 4.39835 13.4641C4.43319 13.2729 4.50591 13.0905 4.61225 12.9278C4.71859 12.7651 4.85639 12.6252 5.01755 12.5165C5.17871 12.4078 5.35998 12.3324 5.5507 12.2948C5.74142 12.2571 5.93774 12.258 6.12812 12.2973C6.31849 12.3367 6.49909 12.4137 6.65928 12.5238Z" fill="#4ABB82"/>
</g>
<defs>
<clipPath id="clip0_1_2358">
<rect width="35" height="35" fill="white" transform="matrix(-1 0 0 1 35 0.648438)"/>
</clipPath>
</defs>
</svg>
