<svg width="35" height="36" viewBox="0 0 35 36" fill="none" xmlns="http://www.w3.org/2000/svg">
<rect width="35" height="36" fill="#F5F5F5"/>
<g id="home" clip-path="url(#clip0_0_1)">
<rect width="1440" height="9310" transform="translate(-1221 -5028)" fill="white"/>
<g id="pricing">
<rect width="1440" height="1169" transform="translate(-1221 -369.352)" fill="white"/>
<g id="price 1">
<rect id="Rectangle 1" x="-295.5" y="-32.8516" width="364" height="732" rx="14.5" fill="white" stroke="#D4D6D9"/>
<g id="Group 106">
<rect id="Rectangle 87" width="55" height="55" rx="27.5" transform="matrix(-1 0 0 1 45.0005 -9.35156)" fill="#EEF0F3" fill-opacity="0.5"/>
<g id="svgexport-10 (35) 1" clip-path="url(#clip1_0_1)">
<g id="Group">
<path id="Vector" d="M31.938 6.43362C31.0578 5.55309 30.0128 4.8546 28.8627 4.37804C27.7125 3.90148 26.4797 3.65619 25.2347 3.65619C23.9898 3.65619 22.757 3.90148 21.6068 4.37804C20.4567 4.8546 19.4117 5.55309 18.5315 6.43362C18.1467 6.80963 17.8075 7.2296 17.5209 7.68487C16.6468 6.4399 15.4856 5.42385 14.1356 4.72272C12.7857 4.02159 11.2867 3.65602 9.76548 3.65696C7.89088 3.65736 6.05849 4.21357 4.49998 5.25527C2.94147 6.29697 1.72681 7.77739 1.00958 9.50935C0.292354 11.2413 0.104759 13.1471 0.470514 14.9856C0.83627 16.8242 1.73895 18.513 3.06444 19.8386L14.7107 31.4849C15.451 32.2246 16.4547 32.6402 17.5012 32.6402C18.5477 32.6402 19.5515 32.2246 20.2917 31.4849L31.9365 19.8386C33.7112 18.0594 34.7078 15.6491 34.7078 13.1361C34.7078 10.6232 33.7126 8.2128 31.938 6.43362ZM29.8744 17.7765L18.2296 29.4228C18.0331 29.61 17.772 29.7145 17.5005 29.7145C17.229 29.7145 16.9679 29.61 16.7713 29.4228L5.12652 17.7765C4.48308 17.1335 3.98036 16.3638 3.65026 15.5161C3.32015 14.6685 3.16988 13.7614 3.20897 12.8526C3.24807 11.9438 3.47568 11.053 3.87735 10.2369C4.27903 9.42069 4.846 8.69694 5.54228 8.11155C6.23856 7.52616 7.04893 7.09192 7.92196 6.83639C8.795 6.58086 9.71162 6.50963 10.6136 6.6272C11.5157 6.74478 12.3834 7.04861 13.1618 7.51939C13.9401 7.99018 14.6121 8.61764 15.1351 9.36196C15.402 9.74143 15.7562 10.0512 16.1678 10.2651C16.5795 10.4791 17.0365 10.591 17.5005 10.5913H17.5019C17.9659 10.5904 18.4229 10.4782 18.8345 10.264C19.2462 10.0498 19.6003 9.73997 19.8674 9.3605C20.0842 9.05198 20.3272 8.76265 20.5936 8.49571C21.8243 7.26499 23.4935 6.57358 25.234 6.57358C26.9745 6.57358 28.6437 7.26499 29.8744 8.49571C31.1052 9.72642 31.7966 11.3956 31.7966 13.1361C31.7966 14.8766 31.1052 16.5458 29.8744 17.7765Z" fill="#1D1D35"/>
<path id="Vector_2" d="M26.6559 8.23174C26.4699 8.17108 26.2737 8.14846 26.0788 8.16521C25.8839 8.18197 25.6943 8.23776 25.5215 8.32927C25.3486 8.42078 25.1959 8.54614 25.0724 8.69788C24.949 8.84962 24.8573 9.02465 24.8029 9.21254C24.7485 9.40043 24.7324 9.59735 24.7557 9.79158C24.779 9.9858 24.8411 10.1734 24.9383 10.3431C25.0355 10.5128 25.1659 10.6613 25.3217 10.7796C25.4775 10.8979 25.6555 10.9836 25.8451 11.0317C26.2179 11.1416 26.555 11.3484 26.8219 11.631C27.0888 11.9135 27.2761 12.2618 27.3647 12.6403C27.4382 12.9618 27.6185 13.2488 27.8763 13.4546C28.134 13.6604 28.4538 13.7728 28.7836 13.7734C28.894 13.7739 29.0041 13.7617 29.1117 13.7369C29.2984 13.694 29.4747 13.6146 29.6307 13.5035C29.7866 13.3923 29.9192 13.2516 30.0208 13.0892C30.1223 12.9268 30.1909 12.7461 30.2226 12.5572C30.2543 12.3683 30.2485 12.175 30.2055 11.9884C30.0012 11.1035 29.5647 10.289 28.9411 9.62869C28.3175 8.96842 27.5277 8.48623 26.6559 8.23174Z" fill="#4ABB82"/>
</g>
</g>
</g>
</g>
</g>
</g>
<defs>
<clipPath id="clip0_0_1">
<rect width="1440" height="9310" fill="white" transform="translate(-1221 -5028)"/>
</clipPath>
<clipPath id="clip1_0_1">
<rect width="35" height="35" fill="white" transform="translate(0.000488281 0.648438)"/>
</clipPath>
</defs>
</svg>
