<svg width="142" height="99" viewBox="0 0 142 99" fill="none" xmlns="http://www.w3.org/2000/svg">
<path d="M62 38.6484C62 49.0484 60.4 57.9818 57.2 65.4484C54 73.1818 49.8667 79.4484 44.8 84.2484C39.7333 89.3151 34 92.9151 27.6 95.0484C20.9333 97.4484 14.4 98.6484 7.99998 98.6484L7.99998 84.6484C14.9333 84.6484 21.4667 82.2484 27.6 77.4484C33.4667 72.9151 36.9333 66.6484 38 58.6484C37.2 58.9151 36.2667 59.1818 35.2 59.4485C34.4 59.7151 33.4667 59.9818 32.4 60.2484C31.0667 60.5151 29.6 60.6484 28 60.6484C20 60.6484 13.3333 57.5818 7.99998 51.4484C2.66665 45.5818 -5.24537e-06 38.6485 -5.94475e-06 30.6484C-6.64413e-06 22.6485 2.8 15.5818 8.4 9.44845C13.7333 3.58178 20.9333 0.648448 30 0.648447C40.1333 0.648446 48 4.38178 53.6 11.8484C59.2 19.5818 62 28.5151 62 38.6484ZM142 38.6484C142 49.0484 140.4 57.9818 137.2 65.4484C134 73.1818 129.867 79.4484 124.8 84.2484C119.733 89.3151 114 92.9151 107.6 95.0484C100.933 97.4484 94.4 98.6484 88 98.6484L88 84.6484C94.9333 84.6484 101.467 82.2484 107.6 77.4484C113.467 72.9151 116.933 66.6484 118 58.6484C117.2 58.9151 116.267 59.1818 115.2 59.4484C114.4 59.7151 113.467 59.9818 112.4 60.2484C111.067 60.5151 109.6 60.6484 108 60.6484C100 60.6484 93.3333 57.5818 88 51.4484C82.6667 45.5818 80 38.6484 80 30.6484C80 22.6485 82.8 15.5818 88.4 9.44845C93.7333 3.58178 100.933 0.648441 110 0.64844C120.133 0.648439 128 4.38178 133.6 11.8484C139.2 19.5818 142 28.5151 142 38.6484Z" fill="url(#paint0_linear_1_2454)"/>
<defs>
<linearGradient id="paint0_linear_1_2454" x1="71" y1="98.6484" x2="71" y2="0.648444" gradientUnits="userSpaceOnUse">
<stop stop-color="#DCFCE7"/>
<stop offset="1" stop-color="#DCFCE7" stop-opacity="0"/>
</linearGradient>
</defs>
</svg>
