<svg width="19" height="20" viewBox="0 0 19 20" fill="none" xmlns="http://www.w3.org/2000/svg">
<path d="M17.1328 5.08984C17.1328 4.59256 16.9353 4.11565 16.5836 3.76402C16.232 3.41239 15.7551 3.21484 15.2578 3.21484H4.00781C3.51053 3.21484 3.03362 3.41239 2.68199 3.76402C2.33036 4.11565 2.13281 4.59256 2.13281 5.08984V5.71484H17.1328V5.08984ZM13.3828 0.714844H5.88281C5.49597 0.715931 5.11894 0.836643 4.8034 1.06043C4.48786 1.28422 4.24926 1.60013 4.12031 1.96484H15.1453C15.0164 1.60013 14.7778 1.28422 14.4622 1.06043C14.1467 0.836643 13.7697 0.715931 13.3828 0.714844ZM17.1328 6.96484H2.13281C1.63553 6.96484 1.15862 7.16239 0.806987 7.51402C0.455357 7.86565 0.257813 8.34256 0.257812 8.83984V17.5898C0.257813 18.0871 0.455357 18.564 0.806987 18.9157C1.15862 19.2673 1.63553 19.4648 2.13281 19.4648H17.1328C17.6301 19.4648 18.107 19.2673 18.4586 18.9157C18.8103 18.564 19.0078 18.0871 19.0078 17.5898V8.83984C19.0078 8.34256 18.8103 7.86565 18.4586 7.51402C18.107 7.16239 17.6301 6.96484 17.1328 6.96484Z" fill="white"/>
</svg>
