<svg width="359" height="241" viewBox="0 0 359 241" fill="none" xmlns="http://www.w3.org/2000/svg">
<g clip-path="url(#clip0_1_2517)">
<rect x="0.619141" y="0.0898438" width="358" height="240" rx="6" fill="url(#paint0_linear_1_2517)"/>
<g opacity="0.9">
<path d="M33.4231 263.073C51.552 248.705 54.7947 223.706 40.5685 207.229C26.3422 190.753 0.104826 189.119 -18.0241 203.488C-36.1531 217.857 -39.3957 242.855 -25.1695 259.332C-10.9433 275.809 15.2941 277.442 33.4231 263.073Z" stroke="white" stroke-miterlimit="10"/>
<path d="M31.3904 185.381L61.7377 220.528C63.131 222.142 65.6206 222.364 67.2972 221.035C68.9738 219.706 69.2132 217.321 67.8199 215.708L37.4727 180.56C36.0793 178.946 33.5898 178.725 31.9132 180.053C30.2366 181.382 29.9971 183.767 31.3904 185.381Z" stroke="white"/>
<path d="M49.4899 183.257L69.1628 206.042C70.3425 207.408 72.4496 207.595 73.868 206.471L74.8031 205.73C76.2215 204.606 76.4248 202.588 75.2451 201.221L55.5722 178.437C54.3925 177.07 52.2854 176.883 50.867 178.008L49.9319 178.749C48.5135 179.873 48.3102 181.891 49.4899 183.257Z" stroke="white"/>
</g>
</g>
<defs>
<linearGradient id="paint0_linear_1_2517" x1="179.619" y1="0.0898437" x2="179.619" y2="240.09" gradientUnits="userSpaceOnUse">
<stop stop-opacity="0"/>
<stop offset="0.46875" stop-opacity="0.4"/>
<stop offset="1" stop-opacity="0.8"/>
</linearGradient>
<clipPath id="clip0_1_2517">
<rect x="0.619141" y="0.0898438" width="358" height="240" rx="6" fill="white"/>
</clipPath>
</defs>
</svg>
