<svg width="40" height="41" viewBox="0 0 40 41" fill="none" xmlns="http://www.w3.org/2000/svg">
<rect width="40" height="41" fill="#F5F5F5"/>
<g id="home" clip-path="url(#clip0_0_1)">
<rect width="1440" height="9310" transform="translate(-1092 -4040)" fill="white"/>
<g id="Feature ">
<rect width="1440" height="996" transform="translate(-1092 -377.352)" fill="#EAFEF1" fill-opacity="0.33"/>
<g id="cards">
<g id="card 5">
<rect id="Rectangle 19" x="-20" y="-19.3516" width="80" height="80" rx="40" fill="white"/>
<g id="24-hours 1" clip-path="url(#clip1_0_1)">
<g id="Group">
<g id="Group_2">
<path id="Vector" d="M30.6755 6.20182C30.8085 5.93417 30.7838 5.60143 30.6187 5.35323L27.7974 1.03771C27.5376 0.640524 27.0051 0.528806 26.6079 0.788648C26.2106 1.04833 26.0991 1.58099 26.3588 1.97817L27.3312 3.46543C24.496 2.25942 21.3735 1.76075 18.2682 2.0477C13.9431 2.44786 9.86688 4.36246 6.79049 7.43884C3.4427 10.7866 1.50404 15.2344 1.33146 19.9631C1.15982 24.6665 2.74497 29.2192 5.79487 32.7823C5.96487 32.9809 6.20573 33.0828 6.44815 33.0828C6.6458 33.0828 6.84455 33.0149 7.0065 32.8763C7.36705 32.5677 7.40916 32.0251 7.10057 31.6646C1.38388 24.9859 1.78153 14.8786 8.0058 8.65423C13.0178 3.64215 20.5692 2.3452 26.8713 5.13604L24.7011 5.25667C24.2273 5.28308 23.8644 5.68854 23.8908 6.16245C23.9163 6.6201 24.2952 6.97424 24.748 6.97416C24.7641 6.97416 24.7803 6.97369 24.7966 6.97283L29.9503 6.68627C30.2556 6.6701 30.5457 6.4801 30.6755 6.20182Z" fill="#1D1D35"/>
<path id="Vector_2" d="M34.2056 8.515C33.897 8.15437 33.3545 8.11219 32.9939 8.42093C32.6333 8.72953 32.5912 9.27202 32.8998 9.63257C38.6162 16.3112 38.2184 26.4185 31.9943 32.6427C26.9823 37.6548 19.4309 38.9517 13.1287 36.1609L15.299 36.0402C15.7728 36.0138 16.1357 35.6084 16.1093 35.1345C16.083 34.6605 15.678 34.2991 15.2035 34.3241L10.0498 34.6106C9.40713 34.6278 9.01026 35.4184 9.38135 35.9438L12.2027 40.2593C12.3675 40.5115 12.6423 40.6485 12.9227 40.6485C13.084 40.6485 13.2471 40.6032 13.3922 40.5083C13.7894 40.2486 13.9009 39.716 13.6412 39.3187L12.6695 37.8325C14.9812 38.8157 17.4838 39.3284 20.0125 39.3284C20.5849 39.3284 21.1587 39.3022 21.7319 39.2491C26.057 38.849 30.1332 36.9344 33.2096 33.858C36.5573 30.5102 38.496 26.0625 38.6686 21.334C38.8404 16.6307 37.2554 12.0782 34.2056 8.515Z" fill="#1D1D35"/>
</g>
<g id="Group_3">
<path id="Vector_3" d="M28.0467 21.8089H27.1117V14.5265C27.1117 14.1671 26.8193 13.8746 26.4598 13.8746H25.1854C24.965 13.8746 24.7612 13.9846 24.6402 14.169L19.3042 22.3055C19.0472 22.6976 19.0267 23.1778 19.2495 23.5901C19.4722 24.0025 19.885 24.2488 20.3537 24.2488H24.6716V26.7707C24.6716 27.1301 24.964 27.4225 25.3235 27.4225H26.4598C26.8193 27.4225 27.1117 27.1301 27.1117 26.7707V24.2488H28.0467C28.4061 24.2488 28.6985 23.9564 28.6985 23.5969V22.4607C28.6986 22.1013 28.4062 21.8089 28.0467 21.8089ZM24.6717 18.727V21.8088H22.6507L24.6717 18.727Z" fill="#4ABB82"/>
<path id="Vector_4" d="M18.2896 19.4734C18.4128 19.3503 18.4806 19.1866 18.4806 19.0124V14.5265C18.4806 14.1671 18.1882 13.8746 17.8288 13.8746H11.9533C11.5939 13.8746 11.3015 14.1671 11.3015 14.5265V17.2497C11.3015 17.6091 11.5939 17.9016 11.9533 17.9016H13.0682C13.4276 17.9016 13.72 17.6091 13.72 17.2497V16.3228H16.0405V18.8416L11.4913 23.4114C11.3689 23.5344 11.3014 23.6978 11.3014 23.8713V26.7707C11.3014 27.1302 11.5938 27.4226 11.9533 27.4226H17.8287C18.1881 27.4226 18.4806 27.1302 18.4806 26.7707V25.6343C18.4806 25.2749 18.1881 24.9825 17.8287 24.9825H13.72V24.0429L18.2896 19.4734Z" fill="#4ABB82"/>
</g>
</g>
</g>
</g>
</g>
</g>
</g>
<defs>
<clipPath id="clip0_0_1">
<rect width="1440" height="9310" fill="white" transform="translate(-1092 -4040)"/>
</clipPath>
<clipPath id="clip1_0_1">
<rect width="40" height="40" fill="white" transform="translate(0 0.648438)"/>
</clipPath>
</defs>
</svg>
